<?xml version="1.0" standalone="no"?>
<!DOCTYPE svg PUBLIC "-//W3C//DTD SVG 20010904//EN"
 "http://www.w3.org/TR/2001/REC-SVG-20010904/DTD/svg10.dtd">
<svg version="1.0" xmlns="http://www.w3.org/2000/svg"
 width="4000.000000pt" height="4000.000000pt" viewBox="0 0 4000.000000 4000.000000"
 preserveAspectRatio="xMidYMid meet">

<g transform="translate(0.000000,4000.000000) scale(0.100000,-0.100000)"
fill="#000000" stroke="none">
<path d="M25658 22085 c-6 -14 -15 -25 -19 -25 -5 0 -11 -16 -15 -35 -3 -20
-12 -35 -20 -35 -9 0 -14 -11 -14 -30 0 -17 -9 -39 -20 -50 -11 -11 -20 -31
-20 -44 0 -13 -6 -29 -14 -35 -8 -7 -17 -28 -21 -47 -3 -19 -13 -38 -21 -41
-8 -3 -14 -18 -14 -34 0 -16 -6 -32 -14 -35 -8 -3 -17 -20 -20 -39 -4 -18 -13
-38 -21 -45 -8 -7 -15 -20 -15 -29 0 -9 -9 -34 -20 -56 -11 -22 -20 -44 -20
-51 0 -6 -7 -17 -15 -24 -8 -7 -15 -26 -15 -42 0 -16 -6 -31 -14 -34 -8 -3
-17 -20 -20 -39 -4 -18 -13 -36 -21 -39 -9 -3 -15 -18 -15 -34 0 -16 -9 -37
-20 -47 -11 -10 -20 -30 -20 -45 0 -15 -7 -33 -15 -40 -8 -7 -17 -27 -21 -46
-3 -19 -12 -34 -20 -34 -9 0 -14 -11 -14 -30 0 -18 -6 -33 -15 -36 -8 -4 -15
-13 -15 -21 0 -9 -9 -37 -21 -62 -12 -25 -27 -59 -35 -76 -7 -16 -16 -43 -20
-58 -4 -16 -13 -31 -20 -34 -8 -3 -14 -18 -14 -34 0 -16 -6 -32 -14 -35 -8 -3
-17 -20 -20 -39 -4 -18 -13 -36 -21 -39 -8 -3 -15 -17 -15 -32 0 -14 -9 -37
-20 -51 -11 -14 -20 -36 -20 -48 0 -12 -7 -28 -15 -35 -8 -7 -17 -27 -21 -45
-3 -19 -12 -36 -20 -39 -8 -3 -14 -19 -14 -35 0 -16 -6 -31 -15 -35 -8 -3 -15
-11 -15 -19 0 -7 -9 -30 -20 -52 -11 -22 -20 -44 -20 -50 0 -6 -9 -28 -20 -50
-11 -22 -20 -45 -20 -52 0 -8 -7 -16 -15 -19 -9 -4 -15 -19 -15 -35 0 -16 -6
-32 -14 -35 -8 -3 -17 -20 -20 -39 -4 -18 -13 -38 -21 -45 -8 -7 -15 -25 -15
-40 0 -15 -9 -35 -20 -45 -11 -10 -20 -31 -20 -47 0 -16 -6 -31 -15 -34 -8 -3
-17 -21 -21 -39 -3 -19 -12 -36 -20 -39 -8 -3 -14 -19 -14 -35 0 -16 -6 -31
-14 -34 -7 -3 -16 -18 -20 -34 -4 -15 -13 -41 -20 -58 -8 -16 -23 -51 -35 -76
-12 -25 -21 -51 -21 -56 0 -6 -7 -16 -15 -23 -8 -7 -15 -25 -15 -41 0 -18 -5
-29 -14 -29 -9 0 -17 -15 -21 -39 -4 -22 -13 -42 -21 -45 -8 -3 -14 -18 -14
-34 0 -16 -9 -37 -20 -47 -11 -10 -20 -31 -20 -47 0 -16 -6 -31 -14 -34 -8 -3
-18 -20 -22 -37 -3 -17 -13 -37 -20 -45 -8 -7 -14 -24 -14 -36 0 -13 -7 -29
-15 -36 -8 -7 -15 -17 -15 -23 0 -5 -9 -31 -21 -56 -12 -25 -27 -59 -35 -76
-7 -16 -18 -42 -23 -57 -6 -16 -15 -28 -21 -28 -5 0 -10 -7 -10 -16 0 -17 -38
-90 -57 -112 -7 -7 -13 -22 -13 -33 0 -10 -7 -19 -15 -19 -9 0 -18 -13 -22
-31 -3 -17 -12 -33 -19 -36 -8 -3 -14 -12 -14 -19 0 -8 -6 -17 -14 -20 -8 -3
-19 -18 -26 -34 -7 -16 -18 -31 -26 -34 -8 -3 -14 -12 -14 -21 0 -8 -4 -15 -9
-15 -5 0 -28 -18 -52 -40 -24 -22 -50 -40 -57 -40 -7 0 -15 -7 -18 -15 -4 -9
-19 -15 -35 -15 -16 0 -32 -6 -35 -14 -3 -8 -24 -17 -47 -21 -23 -4 -61 -15
-84 -26 -41 -18 -43 -21 -43 -63 0 -31 5 -46 16 -50 9 -3 319 -6 690 -6 l674
0 0 54 0 54 -62 7 c-35 4 -67 11 -73 15 -5 4 -48 10 -95 14 -47 4 -95 13 -107
21 -12 8 -34 15 -48 15 -14 0 -28 7 -31 15 -3 8 -14 17 -25 20 -10 4 -19 13
-19 21 0 8 -7 14 -15 14 -8 0 -15 6 -15 14 0 7 -9 25 -20 39 -18 22 -20 40
-20 165 0 108 3 141 14 145 7 3 16 26 19 52 4 25 13 52 21 60 7 7 16 32 20 54
3 23 10 41 15 41 5 0 13 14 16 32 4 17 14 38 21 46 8 7 14 24 14 36 0 13 6 29
14 35 8 7 17 30 21 51 4 21 13 41 21 44 8 3 14 19 14 36 0 18 6 33 15 36 8 4
15 12 15 19 0 7 7 16 16 19 23 9 1427 7 1439 -2 9 -6 23 -33 61 -117 8 -16 17
-45 20 -62 4 -18 13 -33 20 -33 9 0 14 -12 14 -34 0 -20 6 -36 14 -39 8 -3 17
-24 21 -47 4 -23 13 -44 21 -47 8 -3 14 -19 14 -37 0 -20 7 -35 20 -44 12 -7
20 -23 20 -41 0 -16 7 -34 15 -41 8 -7 18 -30 21 -51 4 -21 13 -40 20 -43 8
-3 14 -17 14 -31 0 -14 7 -37 16 -50 19 -29 26 -201 9 -213 -6 -4 -18 -19 -28
-34 -10 -16 -24 -28 -32 -28 -7 0 -20 -7 -29 -15 -8 -8 -36 -18 -63 -21 -26
-4 -54 -11 -61 -17 -7 -6 -64 -13 -125 -15 -62 -2 -118 -9 -124 -14 -16 -13
-17 -70 -1 -86 9 -9 243 -12 992 -12 540 0 987 4 994 9 9 5 12 23 10 51 -3 38
-7 45 -33 53 -16 6 -32 13 -35 17 -3 4 -29 10 -59 13 -30 4 -61 13 -71 22 -9
8 -22 15 -28 15 -7 0 -21 9 -32 20 -11 11 -27 20 -35 20 -8 0 -15 6 -15 14 0
8 -9 18 -20 21 -11 3 -20 12 -20 19 0 7 -9 21 -20 31 -11 10 -20 26 -20 37 0
10 -6 18 -13 18 -7 0 -18 12 -24 28 -13 28 -27 51 -55 91 -10 13 -18 32 -18
41 0 10 -7 20 -15 24 -8 3 -15 17 -15 31 0 14 -6 28 -14 31 -8 3 -18 20 -22
37 -3 17 -13 37 -20 45 -8 7 -14 24 -14 38 0 14 -6 27 -14 30 -8 3 -17 20 -20
39 -4 18 -13 38 -21 45 -8 7 -15 23 -15 36 0 13 -9 32 -20 41 -12 11 -20 30
-20 50 0 23 -5 33 -15 33 -8 0 -15 7 -15 16 0 9 -9 36 -20 60 -11 24 -29 64
-40 88 -11 24 -20 50 -20 59 0 8 -7 17 -15 21 -9 3 -15 18 -15 36 0 18 -6 33
-15 36 -8 4 -15 13 -15 21 0 9 -9 37 -21 62 -12 25 -27 60 -35 76 -7 17 -16
42 -20 57 -3 15 -12 29 -20 32 -8 3 -14 20 -14 41 0 23 -5 35 -14 35 -16 0
-26 21 -26 56 0 13 -4 24 -10 24 -5 0 -15 19 -22 43 -6 23 -18 46 -25 50 -7 4
-13 21 -13 38 0 16 -6 32 -14 35 -8 3 -17 17 -20 32 -4 15 -13 41 -20 57 -8
17 -23 51 -35 76 -12 25 -21 53 -21 62 0 8 -7 17 -15 21 -9 3 -15 18 -15 36 0
18 -6 33 -15 36 -8 3 -17 21 -21 40 -3 18 -12 38 -20 45 -8 6 -14 24 -14 40 0
17 -9 37 -20 46 -11 10 -20 29 -20 44 0 15 -6 29 -14 32 -8 3 -17 20 -21 38
-4 18 -14 39 -21 47 -8 7 -14 21 -14 31 0 9 -9 34 -20 56 -11 22 -20 44 -20
51 0 6 -7 17 -15 24 -8 7 -15 25 -15 40 0 15 -7 30 -14 33 -8 3 -18 22 -22 41
-3 20 -10 36 -14 36 -5 0 -12 15 -16 33 -3 17 -15 48 -25 67 -11 19 -19 42
-19 51 0 9 -7 19 -15 23 -8 3 -15 18 -15 33 0 16 -9 36 -20 46 -11 9 -20 28
-20 41 0 13 -7 29 -15 36 -8 7 -17 27 -21 46 -3 18 -12 38 -20 45 -8 6 -14 22
-14 34 0 12 -6 28 -14 34 -8 7 -18 26 -22 44 -3 17 -13 37 -20 45 -8 7 -14 21
-14 31 0 9 -9 34 -20 56 -11 22 -20 44 -20 51 0 6 -7 17 -15 24 -8 7 -15 25
-15 40 0 15 -6 30 -14 33 -8 3 -17 20 -21 38 -4 18 -14 39 -21 47 -8 7 -14 24
-14 38 0 13 -9 33 -20 44 -11 11 -20 33 -20 49 0 16 -6 31 -14 34 -8 3 -18 22
-21 41 -4 19 -13 37 -21 40 -8 3 -14 18 -14 34 0 16 -6 35 -14 41 -8 7 -17 28
-21 47 -3 19 -13 38 -21 41 -7 3 -14 13 -14 23 0 10 -10 20 -22 24 -35 9 -38
8 -50 -19z m-340 -1418 c12 -18 22 -39 22 -45 0 -7 9 -29 20 -49 11 -21 20
-45 20 -54 0 -9 7 -19 15 -23 9 -3 15 -18 15 -34 0 -16 7 -35 15 -42 8 -7 17
-27 21 -46 3 -18 12 -38 20 -45 8 -6 14 -25 14 -41 0 -16 6 -31 14 -34 8 -3
17 -20 20 -39 4 -18 13 -38 21 -45 8 -7 15 -25 15 -40 0 -15 9 -35 20 -45 11
-10 20 -31 20 -47 0 -16 6 -31 15 -34 8 -4 15 -13 15 -21 0 -9 9 -37 21 -62
12 -25 27 -59 35 -76 7 -16 16 -43 20 -58 4 -16 13 -31 20 -34 8 -3 14 -19 14
-38 0 -19 6 -35 14 -38 8 -3 18 -22 21 -41 4 -19 13 -40 21 -47 8 -6 14 -20
14 -30 0 -11 9 -36 20 -56 11 -21 20 -45 20 -54 0 -9 7 -19 15 -23 9 -3 15
-18 15 -34 0 -16 7 -35 15 -42 8 -7 15 -21 15 -31 0 -18 -20 -19 -615 -19
l-615 0 0 24 c0 13 7 26 15 30 9 3 15 18 15 36 0 17 6 33 14 36 8 3 16 19 20
35 3 17 13 37 21 45 8 9 15 26 15 38 0 13 6 29 14 35 8 7 17 27 20 45 4 19 13
39 21 46 8 7 15 26 15 42 0 16 6 31 14 34 8 3 17 20 20 39 4 18 13 36 21 39 9
3 15 18 15 36 0 17 9 39 20 50 11 11 20 31 20 44 0 13 7 29 15 36 8 7 17 27
21 45 3 19 12 36 20 39 8 3 14 19 14 35 0 16 6 31 14 34 8 3 17 20 21 38 4 18
14 39 21 47 8 7 14 21 14 31 0 9 9 34 20 56 11 22 20 45 20 52 0 8 7 16 15 19
9 4 15 19 15 40 0 23 5 34 14 34 9 0 17 15 21 39 4 22 13 42 21 45 8 3 14 18
14 34 0 16 9 37 20 47 11 10 20 31 20 47 0 38 20 36 48 -5z"/>
<path d="M5555 22080 c-42 -12 -102 -20 -150 -20 -52 0 -88 -5 -100 -14 -11
-8 -50 -17 -87 -21 -42 -5 -69 -12 -72 -21 -3 -9 -20 -14 -44 -14 -21 0 -47
-7 -58 -15 -10 -8 -25 -15 -33 -15 -14 0 -44 -12 -147 -61 -23 -10 -49 -19
-58 -19 -9 0 -16 -7 -16 -15 0 -8 -8 -15 -19 -15 -10 0 -29 -8 -42 -18 -13
-10 -32 -21 -41 -25 -10 -3 -18 -11 -18 -17 0 -5 -12 -10 -26 -10 -17 0 -28
-6 -31 -20 -3 -11 -14 -20 -24 -20 -11 0 -19 -6 -19 -14 0 -8 -13 -17 -30 -21
-16 -4 -30 -13 -30 -21 0 -8 -9 -14 -20 -14 -11 0 -20 -7 -20 -15 0 -8 -7 -15
-16 -15 -9 0 -18 -9 -21 -20 -3 -11 -14 -20 -24 -20 -11 0 -19 -7 -19 -15 0
-8 -6 -15 -13 -15 -8 0 -47 -36 -88 -81 -41 -44 -89 -96 -106 -115 -18 -19
-33 -38 -33 -44 0 -5 -9 -12 -20 -15 -11 -3 -20 -13 -20 -20 0 -8 -6 -18 -13
-22 -7 -4 -18 -20 -24 -35 -7 -16 -17 -28 -23 -28 -5 0 -10 -7 -10 -15 0 -9
-6 -18 -14 -21 -8 -3 -18 -19 -21 -36 -4 -16 -13 -32 -21 -35 -8 -3 -14 -14
-14 -24 0 -10 -5 -19 -11 -19 -5 0 -16 -15 -24 -34 -8 -19 -19 -37 -25 -41 -5
-3 -10 -17 -10 -31 0 -14 -6 -27 -14 -30 -8 -3 -17 -20 -20 -39 -4 -18 -13
-38 -21 -45 -8 -7 -15 -27 -15 -45 0 -19 -8 -39 -20 -50 -13 -12 -20 -31 -20
-57 0 -24 -5 -41 -14 -44 -9 -3 -16 -30 -21 -72 -4 -37 -12 -70 -17 -73 -6 -4
-14 -48 -19 -99 -5 -51 -14 -99 -21 -107 -8 -11 -12 -93 -11 -306 0 -241 3
-302 16 -352 10 -32 17 -81 17 -108 0 -27 6 -63 14 -80 8 -18 17 -53 21 -78 3
-26 12 -55 20 -65 8 -11 15 -36 15 -56 0 -24 7 -45 20 -58 11 -11 20 -33 20
-49 0 -16 6 -34 14 -40 8 -7 17 -27 20 -45 4 -19 13 -39 21 -46 8 -7 15 -21
15 -31 0 -9 6 -24 14 -31 7 -8 17 -29 21 -47 4 -18 13 -35 21 -38 8 -3 14 -14
14 -24 0 -10 5 -19 10 -19 6 0 16 -12 23 -27 6 -16 17 -32 24 -36 7 -4 13 -14
13 -21 0 -7 9 -23 20 -36 11 -13 20 -29 20 -37 0 -7 7 -13 15 -13 8 0 15 -7
15 -15 0 -8 9 -19 20 -25 11 -6 20 -17 20 -25 0 -9 9 -23 20 -32 11 -10 20
-23 20 -30 0 -7 7 -13 15 -13 8 0 15 -6 15 -13 0 -6 16 -25 35 -41 19 -16 35
-35 35 -43 0 -7 5 -13 11 -13 6 0 25 -16 43 -35 19 -19 38 -35 45 -35 6 0 11
-7 11 -15 0 -8 5 -15 11 -15 7 0 22 -10 35 -22 46 -45 64 -58 79 -58 8 0 15
-7 15 -15 0 -8 6 -15 13 -15 8 0 24 -9 37 -20 13 -11 29 -20 37 -20 7 0 13 -4
13 -9 0 -9 61 -51 90 -61 32 -12 96 -46 108 -57 7 -7 24 -13 38 -13 14 0 27
-6 30 -14 3 -8 25 -17 49 -20 24 -4 45 -13 48 -20 3 -7 27 -16 53 -19 28 -3
51 -11 56 -21 7 -12 24 -16 62 -16 33 0 58 -5 65 -14 6 -7 39 -17 74 -20 34
-4 82 -14 107 -21 25 -7 104 -16 175 -19 72 -4 167 -12 211 -18 63 -9 100 -9
165 1 46 7 149 16 228 20 79 5 146 13 150 18 3 6 37 13 74 16 37 4 77 13 90
22 12 8 41 15 65 15 29 0 53 7 69 20 14 11 40 20 58 20 20 0 35 6 39 15 3 8
23 18 45 21 23 4 46 13 52 20 6 8 18 14 26 14 14 0 100 44 117 61 6 5 18 9 28
9 10 0 18 4 18 9 0 5 15 14 33 22 17 7 36 19 40 26 4 7 12 13 17 13 6 0 19 9
30 20 11 11 27 20 35 20 8 0 15 7 15 15 0 8 9 15 20 15 11 0 20 7 20 15 0 8 4
15 9 15 11 0 114 82 153 122 15 16 32 28 38 28 5 0 10 6 10 13 0 7 9 20 20 29
10 9 31 35 46 57 15 23 31 41 35 41 5 0 9 5 9 11 0 7 16 26 35 45 19 18 35 36
35 41 0 5 9 16 20 26 11 9 20 26 20 37 0 11 7 20 15 20 8 0 15 4 15 8 0 5 9
19 20 32 11 13 20 32 20 42 0 10 6 21 14 24 8 3 18 19 21 36 4 16 13 32 21 35
8 3 14 11 14 19 0 8 9 31 20 51 11 21 20 44 20 51 0 7 7 15 15 18 9 4 15 19
15 35 0 17 6 32 15 35 8 3 17 25 21 50 3 24 12 49 20 55 8 6 14 28 14 49 0 23
8 46 20 60 14 16 20 37 20 71 0 28 6 53 14 62 9 8 17 47 21 98 4 46 13 103 21
127 20 62 20 555 0 609 -8 21 -17 76 -21 123 -4 59 -10 87 -20 93 -10 5 -15
25 -15 63 0 41 -5 63 -20 81 -11 14 -20 41 -20 60 0 20 -6 36 -14 39 -8 3 -17
26 -21 54 -4 28 -13 51 -21 54 -8 3 -14 16 -14 29 0 14 -6 30 -14 36 -8 7 -18
25 -21 41 -3 16 -13 34 -21 41 -8 6 -14 20 -14 31 0 10 -7 21 -15 24 -8 4 -15
14 -15 24 0 11 -5 22 -11 26 -6 3 -17 22 -25 40 -8 19 -19 34 -24 34 -6 0 -10
6 -10 14 0 7 -7 20 -16 27 -9 7 -20 23 -25 36 -5 13 -15 23 -24 23 -8 0 -15 9
-15 20 0 11 -7 20 -15 20 -8 0 -15 6 -15 13 0 6 -18 31 -40 55 -22 24 -40 45
-40 48 0 10 -114 118 -177 169 -35 28 -63 53 -63 58 0 4 -9 7 -20 7 -11 0 -20
7 -20 15 0 8 -7 15 -15 15 -8 0 -20 9 -27 20 -7 11 -21 20 -30 20 -10 0 -22 9
-28 20 -6 11 -20 20 -30 20 -11 0 -20 4 -20 8 0 5 -12 15 -27 23 -16 8 -34 20
-41 27 -7 6 -24 12 -38 12 -14 0 -27 7 -30 15 -3 8 -21 17 -39 21 -19 3 -36
12 -39 20 -3 8 -18 14 -34 14 -16 0 -35 6 -41 14 -7 8 -28 17 -49 21 -20 4
-40 11 -43 17 -4 6 -28 13 -55 16 -27 3 -58 11 -69 18 -11 7 -49 16 -85 20
-36 4 -69 13 -75 20 -7 8 -50 14 -125 16 -75 3 -124 9 -140 19 -20 11 -80 14
-280 16 -227 2 -263 1 -325 -17z m545 -210 c4 -7 29 -15 56 -18 27 -2 52 -10
56 -17 4 -7 28 -16 53 -19 29 -5 45 -12 45 -22 0 -8 8 -14 18 -14 11 0 27 -9
37 -20 10 -11 24 -20 32 -20 8 0 29 -16 47 -35 19 -19 37 -35 40 -35 4 0 24
-19 44 -42 20 -23 45 -48 55 -57 9 -8 17 -21 17 -28 0 -7 7 -13 15 -13 8 0 15
-6 15 -14 0 -7 9 -25 20 -39 11 -14 20 -32 20 -41 0 -9 6 -16 14 -16 15 0 26
-21 26 -51 0 -10 7 -19 15 -19 8 0 15 -8 15 -18 0 -9 8 -33 19 -52 10 -19 22
-50 25 -67 4 -18 11 -33 15 -33 4 0 13 -25 20 -55 7 -30 17 -57 22 -60 5 -4 9
-24 9 -45 0 -21 7 -45 14 -53 9 -9 18 -46 22 -93 4 -44 11 -85 17 -92 5 -7 13
-68 18 -137 4 -68 14 -134 21 -147 9 -18 12 -138 12 -528 0 -445 -2 -512 -17
-565 -9 -32 -17 -90 -17 -127 0 -38 -6 -83 -13 -101 -8 -18 -17 -60 -21 -94
-4 -35 -13 -75 -21 -90 -8 -16 -15 -41 -15 -58 0 -16 -7 -43 -15 -59 -8 -16
-18 -46 -21 -67 -4 -21 -13 -44 -20 -50 -8 -6 -14 -25 -14 -41 0 -16 -6 -31
-14 -34 -8 -3 -17 -20 -20 -39 -4 -18 -13 -38 -21 -45 -8 -7 -15 -23 -15 -36
0 -14 -6 -24 -14 -24 -15 0 -26 -21 -26 -51 0 -10 -7 -19 -15 -19 -8 0 -15 -6
-15 -13 0 -15 -24 -49 -57 -82 -13 -12 -23 -27 -23 -34 0 -6 -7 -11 -15 -11
-8 0 -15 -5 -15 -11 0 -15 -42 -59 -57 -59 -7 0 -13 -7 -13 -16 0 -9 -9 -18
-20 -21 -11 -3 -20 -11 -20 -17 0 -6 -12 -17 -27 -24 -50 -22 -83 -43 -83 -52
0 -4 -18 -11 -39 -15 -22 -4 -45 -13 -52 -21 -6 -8 -26 -14 -43 -14 -17 0 -44
-8 -61 -17 -26 -14 -61 -17 -242 -17 -185 0 -215 3 -231 17 -10 9 -32 17 -48
17 -17 0 -39 7 -50 15 -10 8 -25 15 -32 15 -21 0 -122 51 -122 61 0 5 -6 9
-13 9 -8 0 -22 9 -32 20 -10 11 -26 20 -37 20 -10 0 -18 7 -18 16 0 9 -9 18
-20 21 -11 3 -20 11 -20 17 0 7 -16 26 -35 42 -19 16 -35 32 -35 36 0 5 -9 17
-20 28 -11 11 -20 27 -20 35 0 8 -7 15 -15 15 -8 0 -15 7 -15 15 0 8 -9 24
-20 35 -11 11 -20 29 -20 40 0 11 -6 20 -14 20 -8 0 -17 15 -20 36 -4 19 -14
38 -22 41 -8 3 -14 18 -14 34 0 16 -6 32 -14 35 -8 3 -17 26 -21 50 -3 25 -13
48 -21 51 -8 3 -14 19 -14 37 0 17 -7 43 -14 58 -8 16 -18 49 -22 75 -4 27
-11 51 -17 54 -5 4 -13 41 -17 84 -4 43 -12 80 -18 84 -5 3 -13 56 -17 116 -4
61 -14 122 -21 137 -21 40 -20 980 0 1029 8 19 17 88 21 154 5 74 13 128 21
140 8 11 14 40 14 65 0 25 6 55 14 66 8 11 17 46 21 79 4 33 14 69 21 80 8 11
14 32 14 47 0 14 6 33 14 40 7 8 17 29 21 48 4 19 14 40 21 48 8 7 14 27 14
43 0 16 6 32 14 35 8 3 17 21 20 40 4 20 13 34 21 34 8 0 15 8 15 18 0 11 9
27 20 37 11 10 20 26 20 37 0 10 6 18 14 18 8 0 18 9 21 20 3 11 11 20 16 20
5 0 13 9 17 19 8 23 88 108 127 136 15 11 35 28 44 38 8 9 20 17 26 17 6 0 18
9 28 20 9 11 26 20 37 20 11 0 23 6 26 14 3 8 20 18 37 22 18 3 39 12 47 19 8
7 37 15 64 18 27 2 51 9 55 15 10 16 72 20 255 17 116 -3 171 -7 176 -15z"/>
<path d="M8833 22023 c-20 -4 -23 -11 -23 -48 0 -42 1 -44 38 -54 20 -6 43
-11 50 -11 6 0 12 -4 12 -9 0 -4 23 -11 50 -14 28 -3 57 -13 66 -22 8 -8 26
-15 40 -15 14 0 24 -6 24 -14 0 -7 9 -16 20 -19 11 -3 20 -12 20 -21 0 -9 7
-16 15 -16 8 0 15 -9 15 -20 0 -11 6 -20 14 -20 8 0 17 -14 21 -31 4 -17 13
-33 21 -36 8 -3 14 -16 14 -29 0 -13 9 -29 20 -36 12 -8 20 -24 20 -39 0 -15
7 -29 14 -32 8 -3 18 -22 22 -41 3 -21 12 -36 20 -36 9 0 14 -11 14 -29 0 -16
7 -36 15 -44 7 -8 17 -27 21 -43 4 -16 13 -35 21 -42 7 -7 13 -24 13 -36 0
-13 6 -29 14 -35 8 -7 17 -28 21 -47 3 -19 13 -38 21 -41 8 -3 14 -19 14 -38
0 -19 6 -35 14 -38 8 -3 18 -22 22 -42 3 -20 13 -39 20 -42 8 -3 14 -18 14
-34 0 -16 9 -38 20 -49 11 -11 20 -33 20 -50 0 -19 5 -30 14 -30 8 0 17 -15
21 -36 3 -20 13 -43 21 -51 8 -8 14 -23 14 -34 0 -10 9 -36 20 -56 11 -21 20
-45 20 -54 0 -9 7 -19 15 -23 9 -3 15 -18 15 -36 0 -16 4 -30 9 -30 5 0 17
-22 26 -50 9 -27 21 -52 26 -55 5 -4 9 -17 9 -30 0 -13 6 -30 14 -37 7 -8 17
-28 20 -45 4 -17 14 -34 22 -37 8 -3 14 -18 14 -34 0 -16 9 -41 20 -55 11 -14
20 -37 20 -51 0 -15 6 -29 14 -32 8 -3 17 -20 20 -39 4 -18 13 -38 21 -45 8
-7 15 -22 15 -34 0 -12 6 -30 14 -41 7 -11 17 -35 21 -53 4 -18 13 -36 21 -39
8 -3 14 -19 14 -38 0 -19 6 -35 14 -38 8 -3 18 -22 21 -41 4 -19 13 -40 21
-47 8 -6 14 -22 14 -35 0 -12 6 -29 14 -37 8 -8 18 -31 21 -51 4 -21 13 -36
21 -36 9 0 14 -11 14 -33 0 -20 8 -39 20 -50 12 -10 20 -29 20 -47 0 -17 6
-33 14 -36 8 -3 17 -20 20 -39 4 -18 13 -38 21 -45 8 -7 15 -25 15 -40 0 -15
6 -33 14 -39 8 -7 17 -27 20 -45 4 -19 13 -39 21 -46 8 -7 15 -23 15 -35 0
-12 7 -28 15 -35 8 -7 17 -27 21 -46 3 -19 10 -34 14 -34 5 0 11 -15 15 -32 4
-18 13 -42 20 -53 7 -11 15 -34 19 -52 4 -17 14 -34 22 -37 8 -3 14 -18 14
-33 0 -16 9 -36 20 -46 11 -9 20 -29 20 -46 0 -16 6 -34 14 -40 8 -7 17 -28
21 -47 3 -19 13 -38 21 -41 7 -3 14 -18 14 -33 0 -15 7 -33 15 -40 8 -7 17
-27 21 -46 3 -18 12 -38 20 -45 8 -6 14 -25 14 -41 0 -16 6 -31 14 -34 8 -3
17 -21 21 -41 3 -20 13 -42 21 -50 8 -8 14 -25 14 -37 0 -13 6 -29 14 -35 8
-7 17 -28 21 -47 3 -19 13 -38 21 -41 8 -3 14 -18 14 -37 0 -20 7 -35 20 -44
12 -7 20 -23 20 -41 0 -15 9 -36 20 -46 11 -10 20 -24 20 -32 0 -9 14 -13 44
-13 40 0 45 3 55 30 5 17 14 30 20 30 5 0 12 18 16 39 4 22 13 42 21 45 8 3
14 19 14 35 0 16 6 31 14 34 7 3 17 22 20 42 4 20 14 39 22 42 8 3 14 18 14
34 0 17 9 36 20 46 12 11 20 30 20 50 0 22 5 33 14 33 8 0 17 15 20 34 4 19
13 37 21 40 9 3 15 18 15 34 0 16 6 35 13 41 8 6 19 29 26 51 6 22 16 40 21
40 6 0 10 9 10 20 0 11 9 37 20 57 11 21 20 45 20 54 0 9 7 19 15 23 9 3 15
18 15 35 0 16 6 31 14 34 8 3 17 20 21 38 4 18 14 39 21 47 8 7 14 24 14 38 0
13 9 32 20 41 11 10 20 30 20 46 0 15 6 30 14 33 8 3 18 20 22 37 3 17 13 37
20 45 8 7 14 24 14 36 0 13 7 29 15 36 8 7 15 17 15 23 0 10 14 43 61 143 10
23 19 48 19 57 0 8 7 17 15 21 9 3 15 18 15 35 0 16 6 31 14 34 8 3 17 19 21
36 3 16 13 35 21 42 8 6 14 24 14 40 0 17 9 37 20 46 11 10 20 30 20 46 0 15
7 30 15 33 8 3 17 21 21 39 3 19 12 36 20 39 8 3 14 19 14 36 0 17 6 33 14 36
8 3 17 17 20 32 4 15 13 41 20 57 8 17 23 51 35 76 12 25 21 53 21 62 0 8 7
17 15 21 9 3 15 18 15 36 0 19 5 30 14 30 9 0 17 15 21 39 4 22 13 42 21 45 8
3 14 18 14 34 0 16 9 37 20 47 11 10 20 31 20 47 0 16 6 31 15 34 8 3 17 21
21 39 3 19 12 36 20 39 8 3 14 19 14 36 0 18 6 33 15 36 8 4 15 13 15 21 0 9
9 35 20 59 11 24 29 64 40 88 11 24 20 50 20 59 0 8 7 17 15 21 9 3 15 18 15
36 0 18 6 33 15 36 8 3 17 21 21 39 3 19 12 36 20 39 8 3 14 18 14 34 0 16 9
37 20 47 11 10 20 31 20 47 0 16 6 31 15 34 8 3 17 21 21 39 3 19 12 36 20 39
8 3 14 16 14 29 0 14 6 30 14 36 8 7 18 25 21 41 3 16 13 31 21 34 8 3 14 16
14 29 0 14 6 30 14 36 8 7 18 26 21 42 4 17 13 33 21 36 8 3 14 12 14 20 0 8
9 26 20 40 11 14 20 32 20 39 0 8 7 14 15 14 9 0 15 9 15 25 0 14 8 29 20 35
11 6 20 17 20 25 0 8 6 15 14 15 7 0 16 9 19 20 3 11 12 20 21 20 9 0 16 7 16
15 0 8 6 15 14 15 7 0 16 9 19 20 3 11 12 20 21 20 9 0 16 6 16 13 0 7 12 18
28 24 15 7 34 16 42 21 46 28 100 52 118 52 12 0 23 4 27 9 3 5 19 12 35 16
28 6 30 9 30 55 0 47 -1 49 -32 55 -18 3 -321 4 -673 3 l-640 -3 0 -50 0 -50
75 -7 c41 -3 102 -13 135 -22 32 -9 68 -16 80 -16 11 0 29 -7 39 -15 11 -8 28
-15 38 -15 10 0 21 -7 24 -15 4 -8 11 -15 18 -15 16 0 86 -82 86 -101 0 -8 7
-24 15 -35 20 -26 20 -162 0 -200 -8 -16 -15 -45 -15 -65 0 -19 -7 -44 -15
-55 -8 -10 -15 -26 -15 -34 0 -9 -9 -33 -20 -55 -11 -22 -20 -45 -20 -52 0 -7
-9 -30 -20 -50 -11 -21 -20 -46 -20 -55 0 -10 -4 -18 -9 -18 -5 0 -12 -13 -16
-29 -3 -16 -15 -46 -26 -67 -10 -21 -19 -46 -19 -56 0 -10 -7 -18 -15 -18 -10
0 -15 -10 -15 -33 0 -21 -7 -36 -20 -45 -12 -7 -20 -23 -20 -41 0 -16 -6 -31
-14 -34 -8 -3 -18 -22 -21 -41 -4 -19 -13 -40 -21 -47 -8 -6 -14 -22 -14 -35
0 -12 -6 -29 -14 -36 -7 -8 -17 -28 -20 -45 -4 -18 -14 -37 -22 -44 -8 -6 -14
-24 -14 -39 0 -15 -6 -30 -14 -33 -8 -3 -17 -20 -21 -38 -4 -18 -14 -39 -21
-47 -8 -7 -14 -24 -14 -37 0 -13 -6 -30 -14 -37 -7 -8 -17 -28 -20 -45 -4 -17
-14 -34 -22 -37 -8 -3 -14 -19 -14 -41 0 -23 -5 -35 -14 -35 -16 0 -26 -21
-26 -56 0 -13 -4 -24 -10 -24 -5 0 -15 -19 -22 -42 -6 -24 -18 -47 -25 -51 -7
-4 -13 -21 -13 -36 0 -16 -6 -31 -14 -34 -8 -3 -17 -20 -21 -38 -4 -18 -14
-39 -21 -47 -8 -7 -14 -22 -14 -32 0 -11 -9 -34 -20 -52 -11 -18 -20 -40 -20
-49 0 -9 -7 -22 -15 -29 -8 -7 -15 -23 -15 -35 0 -12 -7 -28 -15 -35 -8 -7
-17 -27 -21 -46 -3 -19 -12 -34 -20 -34 -9 0 -14 -11 -14 -33 0 -20 -8 -39
-20 -50 -12 -10 -20 -29 -20 -47 0 -17 -6 -33 -14 -36 -8 -3 -17 -21 -21 -40
-3 -19 -13 -38 -21 -41 -8 -3 -14 -19 -14 -39 0 -32 -2 -34 -35 -34 -32 0 -35
3 -35 29 0 16 -6 34 -14 40 -8 7 -18 26 -22 44 -3 17 -13 37 -20 45 -8 7 -14
24 -14 37 0 13 -6 30 -14 38 -8 8 -18 31 -21 51 -4 21 -13 36 -21 36 -9 0 -14
11 -14 33 0 20 -8 39 -20 50 -11 9 -20 29 -20 46 0 16 -7 34 -15 41 -8 7 -17
27 -21 45 -3 19 -12 36 -20 39 -8 3 -14 18 -14 34 0 16 -7 35 -15 42 -8 7 -17
27 -21 46 -3 18 -12 38 -20 45 -8 6 -14 25 -14 41 0 16 -6 31 -15 34 -8 4 -15
14 -15 23 0 9 -9 33 -20 54 -11 20 -20 45 -20 56 0 10 -6 24 -14 30 -8 7 -17
30 -21 52 -4 24 -12 39 -21 39 -9 0 -14 11 -14 30 0 17 -9 39 -20 50 -11 11
-20 33 -20 50 0 17 -6 33 -14 36 -8 3 -17 23 -21 44 -4 21 -13 41 -21 44 -8 3
-14 19 -14 36 0 17 -6 33 -14 36 -8 3 -17 23 -21 44 -4 21 -13 44 -21 51 -8 6
-14 24 -14 39 0 15 -7 30 -14 33 -8 3 -18 22 -22 41 -3 20 -10 36 -15 36 -4 0
-11 17 -15 38 -4 20 -12 44 -19 52 -7 8 -16 30 -20 48 -4 18 -13 36 -21 39 -8
3 -14 16 -14 30 0 14 -9 36 -20 50 -11 14 -20 36 -20 49 0 12 -6 29 -14 36 -7
8 -17 28 -20 45 -4 18 -14 37 -22 44 -8 6 -14 19 -14 28 0 9 -9 34 -20 56 -11
22 -20 47 -20 57 0 10 -7 21 -15 24 -9 4 -15 19 -15 40 0 21 -6 37 -15 40 -8
3 -17 26 -21 52 -4 26 -12 50 -18 54 -6 4 -12 44 -14 88 -4 74 -2 84 23 120
14 21 37 41 51 44 13 4 24 11 24 16 0 5 21 12 48 15 26 4 66 13 90 21 25 8 85
14 146 14 111 0 116 2 116 55 0 59 78 55 -979 54 -531 -1 -976 -4 -988 -6z"/>
<path d="M13922 22021 c-9 -5 -12 -24 -10 -52 l3 -44 120 -6 c66 -3 129 -10
140 -16 11 -6 37 -13 58 -16 20 -3 44 -13 53 -21 8 -9 26 -16 40 -16 15 0 24
-6 24 -15 0 -8 9 -15 20 -15 13 0 20 -7 20 -20 0 -12 7 -20 16 -20 9 0 18 -9
21 -19 3 -11 11 -22 19 -25 8 -3 14 -18 14 -33 1 -15 7 -39 15 -53 12 -21 14
-262 15 -1665 0 -1071 -3 -1644 -10 -1651 -5 -5 -13 -32 -16 -59 -9 -67 -70
-165 -103 -165 -6 0 -11 -7 -11 -15 0 -8 -8 -15 -18 -15 -10 0 -27 -6 -38 -14
-11 -8 -38 -18 -60 -21 -21 -4 -48 -12 -58 -18 -11 -5 -74 -12 -140 -16 l-121
-6 0 -50 0 -50 1783 -3 1782 -2 0 55 c0 30 6 74 14 97 8 24 17 88 21 143 4 55
13 109 20 120 7 12 15 66 17 130 3 77 10 119 21 140 12 22 17 55 17 120 0 61
5 97 14 110 8 12 16 63 21 130 3 61 13 125 21 143 9 18 14 53 12 80 l-3 47
-52 3 c-47 3 -53 1 -53 -16 0 -11 -6 -22 -14 -25 -7 -3 -16 -26 -19 -52 -4
-25 -14 -53 -22 -61 -8 -9 -15 -31 -15 -50 0 -20 -6 -37 -14 -40 -8 -3 -17
-20 -20 -39 -4 -18 -13 -36 -21 -39 -9 -3 -15 -18 -15 -36 0 -17 -6 -33 -14
-36 -8 -3 -18 -19 -21 -36 -4 -16 -13 -32 -21 -35 -8 -3 -14 -11 -14 -18 0 -6
-9 -22 -20 -35 -11 -13 -20 -29 -20 -37 0 -7 -7 -13 -15 -13 -8 0 -15 -7 -15
-15 0 -8 -9 -19 -20 -25 -11 -6 -20 -19 -20 -29 0 -10 -25 -40 -57 -67 -31
-27 -71 -64 -90 -81 -18 -18 -38 -33 -43 -33 -6 0 -13 -7 -16 -15 -4 -8 -11
-15 -18 -15 -6 0 -22 -9 -36 -20 -14 -11 -33 -20 -42 -20 -10 0 -18 -7 -18
-15 0 -8 -14 -17 -35 -21 -20 -3 -35 -12 -35 -20 0 -9 -12 -14 -33 -14 -21 0
-41 -8 -52 -20 -11 -12 -31 -20 -52 -20 -20 0 -36 -6 -39 -14 -4 -9 -30 -16
-77 -21 -40 -4 -81 -13 -92 -19 -12 -8 -75 -15 -160 -19 -77 -3 -163 -11 -192
-17 -60 -13 -227 -9 -363 10 -99 13 -190 45 -190 67 0 7 -6 13 -14 13 -8 0
-18 9 -21 20 -3 11 -10 20 -14 20 -4 0 -17 22 -29 48 l-22 49 2 764 3 764 63
3 c42 2 73 -2 94 -13 19 -9 58 -15 98 -15 53 0 72 -4 90 -20 13 -11 35 -20 49
-20 14 0 37 -9 51 -20 14 -11 31 -20 38 -20 6 0 12 -7 12 -15 0 -8 9 -15 20
-15 11 0 20 -7 20 -15 0 -8 7 -15 15 -15 8 0 15 -4 15 -8 0 -4 16 -23 35 -42
19 -19 35 -40 35 -46 0 -7 6 -14 14 -17 8 -3 17 -19 21 -36 4 -17 13 -31 21
-31 8 0 14 -10 14 -24 0 -14 6 -31 14 -38 7 -8 17 -29 21 -47 4 -18 13 -35 21
-38 9 -3 14 -20 14 -45 0 -25 8 -50 20 -65 14 -18 20 -41 20 -77 0 -28 7 -59
15 -69 8 -11 17 -57 21 -108 l7 -89 32 -6 c19 -3 47 -3 64 1 l31 7 0 1057 c0
1046 0 1057 -20 1074 -24 20 -46 22 -82 5 -22 -11 -26 -21 -32 -72 -3 -32 -6
-76 -6 -96 0 -21 -6 -43 -14 -49 -8 -7 -15 -38 -18 -75 -2 -42 -9 -69 -21 -80
-10 -11 -17 -33 -17 -57 0 -25 -5 -42 -15 -45 -8 -3 -17 -26 -21 -51 -3 -24
-13 -47 -20 -50 -8 -3 -14 -13 -14 -22 0 -9 -9 -27 -20 -41 -11 -14 -20 -31
-20 -37 0 -7 -4 -13 -8 -13 -5 0 -13 -9 -18 -19 -14 -30 -96 -121 -108 -121
-13 0 -50 -26 -74 -52 -9 -10 -28 -18 -43 -18 -14 0 -38 -9 -52 -20 -17 -13
-40 -20 -70 -20 -24 0 -61 -7 -80 -15 -23 -10 -69 -15 -127 -15 l-90 0 0 835
0 835 458 0 c431 -1 459 -2 497 -20 22 -11 62 -19 88 -20 32 0 49 -5 53 -14 3
-8 23 -17 45 -21 21 -4 39 -11 39 -16 0 -5 12 -12 28 -15 15 -4 38 -15 51 -26
13 -10 30 -18 37 -18 7 0 17 -6 21 -12 9 -15 59 -46 86 -55 9 -3 17 -11 17
-18 0 -7 9 -15 20 -18 11 -3 20 -12 20 -21 0 -9 7 -16 15 -16 8 0 15 -6 15
-13 0 -7 9 -18 20 -25 11 -7 20 -21 20 -32 0 -10 6 -23 13 -27 21 -14 57 -71
57 -91 0 -11 7 -25 15 -32 8 -7 17 -27 21 -46 3 -18 12 -38 20 -45 8 -6 14
-26 14 -43 0 -17 6 -41 14 -52 8 -11 17 -42 21 -69 4 -28 13 -57 21 -65 7 -8
14 -40 16 -70 l3 -55 68 -3 67 -3 0 599 0 600 -22 6 c-35 9 -3411 7 -3426 -3z"/>
<path d="M18573 22024 c-20 -5 -23 -12 -23 -55 l0 -49 98 0 c58 0 117 -6 143
-14 24 -8 65 -17 91 -21 25 -3 52 -13 58 -20 7 -8 18 -15 25 -15 6 0 20 -9 30
-20 10 -11 23 -20 29 -20 6 0 16 -9 21 -19 6 -11 24 -43 40 -73 l30 -53 0
-1700 c0 -1603 -1 -1701 -17 -1725 -10 -13 -18 -30 -18 -37 0 -26 -98 -123
-124 -123 -8 0 -16 -5 -18 -12 -2 -6 -35 -17 -74 -24 -38 -7 -89 -18 -114 -23
-25 -6 -80 -10 -123 -11 l-78 0 3 -52 3 -53 1049 -3 c681 -1 1053 1 1061 8 9
8 13 61 6 91 0 3 -50 9 -110 12 -60 3 -117 10 -127 16 -11 5 -45 13 -77 16
-36 4 -60 12 -64 21 -3 8 -13 14 -23 14 -9 0 -25 9 -35 20 -10 11 -24 20 -32
20 -7 0 -13 6 -13 13 0 7 -9 20 -20 30 -11 9 -20 24 -20 33 0 9 -8 23 -17 30
-16 11 -19 40 -25 251 -8 298 -9 1234 -1 1273 l6 30 127 0 c110 0 129 -2 143
-18 10 -10 17 -24 17 -30 0 -7 5 -12 10 -12 6 0 15 -11 20 -25 5 -14 14 -25
19 -25 5 0 13 -10 17 -22 6 -22 20 -40 57 -76 9 -9 17 -22 17 -29 0 -7 9 -21
20 -30 11 -10 20 -23 20 -30 0 -6 6 -16 13 -20 15 -10 34 -38 50 -75 6 -16 17
-28 24 -28 7 0 13 -7 13 -15 0 -9 6 -18 14 -21 8 -3 18 -19 21 -35 4 -16 13
-29 21 -29 8 0 14 -8 14 -19 0 -10 9 -21 20 -24 11 -3 20 -12 20 -21 0 -9 9
-26 20 -38 11 -12 20 -28 20 -35 0 -7 7 -13 15 -13 8 0 15 -9 15 -20 0 -11 5
-20 10 -20 6 0 16 -12 23 -27 6 -16 17 -32 24 -36 7 -4 13 -15 13 -22 0 -8 7
-15 15 -15 8 0 15 -6 15 -14 0 -7 9 -25 20 -39 11 -14 20 -32 20 -41 0 -9 7
-16 15 -16 8 0 15 -7 15 -15 0 -8 9 -19 20 -25 11 -6 20 -19 20 -30 0 -11 9
-24 20 -30 11 -6 20 -17 20 -25 0 -8 5 -15 10 -15 6 0 16 -12 23 -27 6 -16 17
-32 24 -36 7 -4 13 -14 13 -22 0 -8 6 -18 13 -22 13 -9 29 -32 50 -73 6 -13
27 -40 44 -60 18 -19 33 -40 33 -46 0 -5 16 -27 35 -48 19 -21 35 -45 35 -52
0 -8 9 -19 20 -26 11 -7 20 -21 20 -30 0 -10 6 -18 14 -18 7 0 17 -8 20 -17
17 -44 52 -97 89 -131 9 -9 17 -21 17 -28 0 -6 9 -19 20 -29 11 -10 20 -24 20
-30 0 -7 7 -15 15 -19 8 -3 15 -12 15 -21 0 -8 5 -15 11 -15 5 0 17 -16 25
-35 l14 -35 650 0 650 0 0 53 c0 52 0 52 -43 69 -23 9 -60 19 -82 22 -22 3
-45 12 -51 21 -6 8 -23 15 -37 15 -13 0 -27 7 -31 15 -3 8 -10 15 -15 15 -14
0 -101 86 -101 99 0 6 -7 11 -15 11 -8 0 -15 7 -15 15 0 9 -7 18 -15 21 -8 3
-17 14 -20 25 -4 10 -12 19 -18 19 -7 0 -18 11 -24 25 -7 14 -19 36 -25 50 -7
14 -19 25 -25 25 -7 0 -13 7 -13 15 0 7 -6 18 -13 22 -7 4 -18 20 -24 36 -7
15 -17 27 -23 27 -5 0 -10 9 -10 20 0 11 -7 20 -14 20 -14 0 -32 26 -58 83 -7
15 -18 27 -25 27 -7 0 -13 7 -13 15 0 7 -6 18 -13 22 -7 4 -18 20 -24 36 -7
15 -17 27 -23 27 -5 0 -10 9 -10 20 0 11 -6 20 -13 20 -12 0 -20 12 -52 78 -8
17 -19 32 -24 32 -5 0 -11 9 -14 20 -3 11 -12 20 -20 20 -8 0 -17 13 -20 30
-4 18 -13 30 -22 30 -8 0 -15 9 -15 20 0 11 -6 20 -13 20 -7 0 -18 12 -24 28
-15 33 -31 57 -62 91 -12 14 -30 40 -38 56 -9 17 -22 34 -29 38 -8 4 -14 14
-14 21 0 8 -7 16 -15 20 -8 3 -15 12 -15 19 0 8 -9 22 -20 32 -11 10 -20 24
-20 30 0 7 -7 15 -15 19 -8 3 -15 11 -15 18 0 8 -9 21 -20 31 -11 9 -20 26
-20 37 0 11 -6 20 -14 20 -8 0 -18 9 -21 20 -3 11 -11 20 -16 20 -5 0 -14 11
-19 25 -10 25 -19 38 -51 74 -9 10 -18 22 -20 27 -13 29 -52 84 -60 84 -5 0
-9 7 -9 15 0 7 -7 18 -15 22 -8 5 -18 23 -21 41 -5 27 -4 32 12 32 11 0 28 7
38 15 11 8 41 18 67 21 26 4 50 13 53 20 3 8 20 14 41 14 23 0 35 5 35 14 0 8
15 17 36 21 20 3 43 13 51 21 8 8 23 14 34 14 11 0 22 6 25 14 3 8 18 18 34
21 16 3 31 13 34 21 3 8 12 14 21 14 8 0 15 7 15 15 0 8 5 15 12 15 14 0 138
124 138 139 0 6 7 11 15 11 8 0 15 7 15 15 0 8 6 15 13 15 14 0 57 71 57 94 0
9 7 16 15 16 8 0 17 14 21 35 3 20 12 35 20 35 10 0 14 12 14 39 0 21 6 44 14
50 8 7 18 37 21 66 4 30 13 60 21 66 20 17 21 414 0 422 -8 3 -16 30 -20 71
-4 36 -14 70 -22 77 -8 6 -14 19 -14 28 0 10 -16 48 -35 87 -19 38 -35 75 -35
82 0 6 -6 12 -12 12 -7 0 -19 11 -25 25 -7 14 -19 36 -25 50 -7 14 -18 25 -25
25 -6 0 -15 9 -18 20 -3 11 -13 20 -21 20 -8 0 -14 7 -14 16 0 9 -9 18 -20 21
-11 3 -20 12 -20 19 0 8 -5 14 -10 14 -6 0 -25 16 -43 35 -17 19 -37 35 -44
35 -7 0 -17 9 -23 20 -6 11 -19 20 -29 20 -11 0 -21 6 -24 14 -3 8 -19 17 -35
21 -17 3 -33 13 -36 21 -3 8 -12 14 -21 14 -8 0 -32 9 -52 20 -21 11 -45 20
-53 20 -8 0 -24 7 -34 15 -11 8 -34 15 -51 15 -17 0 -36 5 -42 11 -7 7 -45 17
-85 25 -40 7 -91 17 -113 23 -22 6 -74 11 -115 11 -41 0 -104 7 -140 16 -56
13 -231 16 -1275 19 -665 2 -1220 1 -1232 -1z m2022 -226 c22 -6 74 -13 115
-15 41 -3 77 -8 80 -11 12 -16 52 -32 79 -32 16 0 31 -6 34 -14 3 -8 24 -17
46 -21 21 -3 42 -13 45 -21 3 -8 12 -14 20 -14 8 0 19 -6 23 -12 4 -7 17 -19
28 -26 11 -7 31 -20 45 -29 25 -16 70 -76 70 -94 0 -5 4 -9 10 -9 15 0 60 -72
60 -96 0 -12 6 -27 14 -33 8 -7 17 -28 21 -49 4 -20 11 -40 17 -43 6 -4 14
-41 18 -84 4 -42 13 -82 19 -88 18 -18 15 -395 -4 -440 -8 -20 -15 -55 -15
-77 0 -22 -6 -51 -14 -63 -8 -12 -17 -39 -20 -60 -4 -21 -14 -41 -22 -44 -7
-3 -14 -16 -14 -29 0 -13 -8 -32 -17 -43 -29 -31 -53 -64 -53 -74 0 -12 -48
-57 -61 -57 -5 0 -9 -7 -9 -15 0 -9 -10 -19 -23 -24 -13 -5 -29 -16 -36 -25
-7 -9 -22 -16 -32 -16 -11 0 -19 -7 -19 -15 0 -8 -14 -17 -34 -21 -19 -3 -37
-12 -40 -20 -3 -9 -20 -14 -45 -14 -22 0 -46 -7 -54 -14 -9 -9 -46 -18 -93
-22 -44 -3 -104 -13 -134 -20 -38 -10 -120 -14 -271 -14 -216 0 -217 0 -223
22 -8 31 -8 1716 0 1756 l7 32 221 0 c132 0 237 -5 261 -12z"/>
<path d="M28562 22023 c-21 -4 -23 -9 -20 -51 l3 -47 135 -6 c86 -4 150 -12
175 -22 22 -9 48 -16 58 -17 9 0 17 -4 17 -10 0 -5 12 -13 28 -16 15 -4 42
-22 59 -40 18 -19 37 -34 43 -34 5 0 10 -7 10 -16 0 -9 8 -23 18 -30 13 -10
18 -34 24 -111 3 -54 11 -127 17 -163 14 -83 14 -2887 0 -2975 -5 -33 -12
-104 -15 -158 -5 -82 -9 -99 -25 -108 -12 -6 -19 -21 -19 -39 0 -17 -5 -30
-10 -30 -6 0 -25 -15 -43 -34 -17 -18 -44 -36 -59 -40 -16 -3 -28 -11 -28 -16
0 -5 -21 -12 -47 -16 -27 -4 -59 -11 -73 -17 -14 -5 -79 -12 -145 -16 l-120
-6 0 -50 0 -50 1828 -3 1827 -2 12 27 c6 16 16 100 22 188 7 88 16 167 21 175
5 8 12 83 15 167 5 110 10 156 21 169 10 12 15 55 18 163 2 92 8 155 16 171 7
14 16 86 20 170 4 80 12 153 17 163 7 13 5 26 -7 43 -14 22 -22 25 -63 22 -44
-3 -47 -5 -57 -40 -6 -20 -16 -43 -23 -50 -6 -6 -12 -28 -12 -48 0 -19 -6 -44
-14 -55 -7 -11 -17 -36 -21 -55 -4 -19 -14 -44 -21 -55 -8 -11 -14 -31 -14
-46 0 -15 -6 -32 -14 -38 -8 -7 -18 -27 -22 -44 -3 -18 -13 -41 -20 -52 -8
-11 -14 -27 -14 -37 0 -9 -6 -23 -14 -30 -7 -8 -17 -28 -20 -45 -4 -17 -14
-34 -22 -37 -8 -3 -14 -14 -14 -24 0 -10 -9 -27 -20 -37 -11 -10 -20 -26 -20
-37 0 -10 -6 -18 -13 -18 -7 0 -18 -12 -24 -27 -18 -41 -33 -61 -85 -115 -27
-26 -48 -52 -48 -58 0 -5 -6 -10 -13 -10 -6 0 -25 -16 -41 -35 -16 -19 -35
-35 -42 -35 -6 0 -14 -6 -17 -14 -3 -8 -19 -17 -36 -21 -17 -4 -31 -13 -31
-21 0 -8 -8 -14 -19 -14 -10 0 -30 -9 -44 -20 -14 -11 -36 -20 -50 -20 -14 0
-27 -6 -30 -14 -3 -8 -25 -17 -49 -21 -24 -3 -59 -14 -78 -23 -31 -15 -87 -17
-526 -17 -454 0 -493 1 -511 18 -11 9 -24 17 -28 17 -17 0 -95 84 -95 101 0
10 -6 19 -12 21 -29 10 -37 388 -36 1733 1 1307 8 1634 35 1666 6 8 15 27 18
42 4 16 14 31 21 34 8 3 14 11 14 18 0 8 9 16 19 20 11 3 22 12 25 20 3 8 14
15 24 15 11 0 25 6 31 14 7 8 31 18 54 21 23 4 51 12 62 18 11 6 88 14 170 17
l150 5 3 44 c2 28 -1 47 -10 52 -13 9 -2133 10 -2176 2z"/>
<path d="M33217 22023 c-15 -4 -17 -13 -15 -51 l3 -47 125 -6 c125 -5 241 -30
268 -56 7 -7 20 -13 29 -13 9 0 30 -16 49 -35 18 -19 37 -35 43 -35 6 0 11 -8
11 -17 0 -9 7 -24 15 -33 37 -40 40 -185 39 -1765 0 -1575 -3 -1728 -38 -1747
-9 -5 -16 -18 -16 -30 0 -27 -81 -108 -109 -108 -12 0 -24 -7 -27 -15 -3 -8
-25 -17 -52 -20 -26 -3 -56 -11 -66 -17 -11 -6 -78 -13 -148 -16 l-129 -5 3
-51 3 -51 1830 0 1829 0 9 35 c5 19 15 105 22 190 7 85 18 171 24 190 6 19 11
80 11 135 0 55 6 123 14 152 8 28 17 114 21 190 4 76 12 143 17 150 6 7 14 85
18 173 5 100 13 166 20 175 10 12 9 20 -4 40 -14 21 -24 25 -61 25 -41 0 -47
-3 -55 -27 -6 -16 -17 -40 -25 -55 -8 -14 -15 -41 -15 -60 0 -18 -7 -41 -15
-51 -7 -11 -16 -36 -20 -57 -4 -22 -13 -44 -21 -51 -8 -6 -14 -26 -14 -43 0
-19 -8 -38 -20 -49 -11 -9 -20 -29 -20 -46 0 -16 -7 -34 -15 -41 -8 -7 -17
-28 -21 -47 -4 -19 -13 -37 -20 -40 -8 -3 -14 -14 -14 -26 0 -11 -6 -28 -14
-36 -8 -9 -26 -40 -41 -68 -15 -29 -30 -53 -34 -53 -4 0 -12 -12 -18 -27 -22
-51 -72 -113 -92 -113 -6 0 -11 -5 -11 -10 0 -14 -86 -100 -100 -100 -5 0 -10
-7 -10 -15 0 -8 -7 -15 -15 -15 -9 0 -18 -6 -21 -14 -3 -8 -19 -18 -35 -21
-16 -4 -29 -13 -29 -21 0 -8 -9 -14 -20 -14 -11 0 -29 -9 -40 -20 -11 -11 -33
-20 -50 -20 -17 0 -33 -6 -36 -14 -3 -8 -27 -17 -57 -21 -29 -4 -55 -12 -59
-18 -12 -19 -283 -29 -667 -24 -334 3 -374 6 -383 20 -5 10 -15 17 -22 17 -17
0 -96 85 -96 104 0 9 -6 16 -14 16 -9 0 -16 16 -21 43 -11 69 -17 2860 -7
3116 8 199 12 235 26 243 9 5 16 18 16 28 0 11 9 29 20 40 11 11 20 24 20 29
0 5 9 13 20 16 11 3 20 13 20 21 0 8 10 14 22 14 12 0 29 6 37 14 9 8 36 18
61 24 25 6 63 15 85 21 22 6 95 11 163 11 l123 0 -3 53 -3 52 -1080 1 c-594 1
-1088 0 -1098 -3z"/>
<path d="M21121 15303 c-19 -2 -44 -11 -55 -19 -11 -8 -35 -14 -52 -14 -32 0
-128 -42 -139 -60 -3 -6 -14 -10 -24 -10 -10 0 -26 -9 -36 -20 -10 -11 -24
-20 -30 -20 -7 0 -15 -7 -19 -15 -3 -8 -12 -15 -21 -15 -8 0 -15 -7 -15 -15 0
-8 -7 -15 -16 -15 -9 0 -18 -9 -21 -20 -3 -11 -11 -20 -18 -20 -7 0 -15 -9
-18 -20 -3 -11 -12 -20 -21 -20 -9 0 -16 -8 -16 -20 0 -11 -7 -20 -15 -20 -8
0 -15 -6 -15 -13 0 -8 -9 -22 -20 -32 -11 -10 -20 -26 -20 -36 0 -10 -4 -21
-10 -24 -18 -11 -60 -107 -60 -139 0 -17 -8 -43 -17 -56 -15 -22 -18 -51 -17
-220 0 -164 3 -200 17 -225 9 -16 17 -44 17 -61 0 -17 7 -37 15 -44 8 -7 15
-18 15 -24 0 -6 9 -28 20 -49 11 -20 20 -44 20 -52 0 -8 6 -15 13 -15 7 0 18
-12 25 -27 26 -57 37 -73 50 -73 8 0 16 -9 19 -20 3 -11 10 -20 15 -20 5 0 24
-16 42 -35 19 -19 38 -35 43 -35 6 0 18 -9 28 -20 10 -11 24 -20 30 -20 7 0
15 -6 18 -14 3 -8 19 -17 35 -21 17 -3 33 -13 36 -21 3 -8 19 -14 36 -14 17 0
38 -6 45 -14 8 -7 32 -16 54 -20 41 -6 72 -28 84 -59 3 -9 11 -17 16 -17 5 0
12 -13 16 -29 3 -16 13 -32 21 -35 8 -3 14 -12 14 -21 0 -15 71 -95 85 -95 3
0 21 -16 39 -35 19 -19 38 -35 44 -35 5 0 12 -7 16 -15 3 -9 18 -15 35 -15 16
0 31 -6 34 -14 3 -8 21 -17 39 -21 18 -4 40 -13 48 -20 9 -7 52 -15 103 -17
48 -2 93 -10 99 -16 15 -15 77 -16 115 -1 15 6 70 14 121 18 75 7 97 12 112
29 22 23 26 42 10 42 -5 0 -10 7 -10 16 0 13 -7 15 -37 11 -59 -10 -236 10
-246 28 -4 8 -21 15 -38 15 -17 0 -32 6 -35 15 -4 8 -10 15 -16 15 -17 0 -128
122 -128 141 0 11 -4 19 -8 19 -11 0 -32 46 -32 70 0 16 10 21 50 26 27 4 55
13 61 20 6 8 24 14 39 14 15 0 30 6 33 14 3 8 19 17 35 21 17 3 33 13 36 21 3
8 11 14 18 14 7 0 19 9 26 20 7 11 18 20 25 20 16 0 147 140 147 157 0 7 4 13
8 13 11 0 62 78 62 95 0 7 7 18 15 25 8 7 15 18 15 24 0 7 9 29 20 51 11 22
20 57 20 80 0 22 7 49 15 59 19 25 22 342 4 348 -15 5 -24 94 -11 102 6 4 20
-2 32 -14 11 -11 31 -20 45 -20 22 0 25 -5 25 -32 0 -18 7 -55 15 -82 12 -39
15 -115 15 -375 0 -347 5 -431 25 -431 7 0 15 -13 18 -29 8 -41 42 -73 119
-115 58 -31 76 -36 135 -36 42 0 76 5 88 14 11 7 35 17 53 21 17 3 32 10 32
15 0 4 14 13 30 19 17 5 30 14 30 20 0 5 9 13 20 16 11 3 20 13 20 21 0 8 9
14 19 14 10 0 22 8 25 17 12 30 26 -6 26 -64 l0 -53 178 -1 c205 -1 263 1 276
8 11 7 -45 52 -66 53 -10 0 -25 16 -35 38 -16 33 -18 86 -23 532 l-5 495 -229
0 c-175 0 -230 -3 -233 -12 -3 -7 0 -13 6 -13 6 0 20 -9 31 -20 11 -11 31 -20
44 -20 20 0 25 -6 29 -37 3 -21 10 -56 16 -78 6 -24 11 -160 11 -348 0 -264
-2 -308 -15 -313 -8 -4 -15 -14 -15 -24 0 -9 -9 -25 -20 -35 -11 -10 -20 -24
-20 -32 0 -7 -6 -13 -13 -13 -8 0 -22 -9 -32 -20 -15 -16 -31 -20 -86 -20
l-67 0 -12 35 c-6 19 -16 35 -21 35 -5 0 -10 190 -11 458 l-3 457 -246 3 -247
2 -6 34 c-4 19 -13 39 -21 46 -8 7 -15 23 -15 35 0 13 -7 25 -15 29 -8 3 -15
10 -15 17 0 10 -32 55 -65 90 -8 9 -15 21 -15 27 0 7 -7 12 -15 12 -8 0 -15 7
-15 15 0 8 -7 15 -15 15 -8 0 -19 9 -25 20 -6 11 -15 20 -21 20 -5 0 -19 9
-31 20 -12 11 -27 20 -34 20 -6 0 -14 7 -18 15 -3 8 -14 15 -25 15 -11 0 -22
4 -25 9 -11 17 -113 61 -142 61 -16 0 -41 8 -54 17 -21 15 -53 18 -210 19
-102 1 -200 0 -219 -3z m273 -88 c15 -8 37 -15 48 -15 11 0 31 -9 45 -20 14
-11 31 -20 38 -20 7 0 15 -7 19 -15 3 -8 12 -15 21 -15 8 0 15 -7 15 -15 0 -8
9 -19 20 -25 11 -6 20 -21 20 -33 0 -12 9 -30 20 -40 11 -9 20 -26 20 -37 0
-11 7 -23 15 -26 9 -4 15 -19 15 -38 0 -17 7 -44 15 -59 19 -36 39 -246 40
-402 0 -156 -24 -385 -42 -392 -8 -3 -13 -21 -13 -43 0 -21 -6 -45 -14 -52 -7
-8 -17 -29 -21 -46 -3 -18 -13 -32 -21 -32 -8 0 -14 -8 -14 -18 0 -11 -9 -27
-20 -37 -11 -10 -20 -24 -20 -32 0 -7 -8 -17 -17 -20 -10 -4 -24 -15 -31 -25
-7 -10 -22 -18 -32 -18 -10 0 -23 -7 -27 -15 -19 -34 -293 -36 -318 -2 -7 9
-22 17 -35 17 -13 0 -24 8 -27 20 -3 11 -14 20 -24 20 -12 0 -19 7 -19 20 0
11 -6 20 -14 20 -8 0 -17 14 -21 30 -4 17 -13 30 -21 30 -8 0 -14 10 -14 23 0
13 -9 32 -20 42 -13 12 -20 31 -20 53 0 20 -7 43 -15 52 -8 9 -17 43 -20 75
-4 33 -13 83 -21 112 -20 67 -17 434 4 455 6 6 12 32 12 57 1 58 16 125 29
129 6 2 11 18 11 36 0 18 9 41 20 54 11 12 20 28 20 35 0 8 7 20 15 27 8 6 17
21 21 32 8 25 71 88 107 107 15 8 27 18 27 23 0 4 11 8 24 8 13 0 39 7 57 15
44 19 126 19 163 0z"/>
<path d="M25095 15303 c-11 -3 -24 -11 -28 -19 -4 -8 -15 -14 -22 -14 -8 0
-15 -7 -15 -16 0 -9 -7 -22 -15 -28 -8 -6 -17 -36 -21 -67 -5 -47 -2 -64 20
-111 20 -42 34 -59 56 -67 17 -5 30 -15 30 -20 0 -7 28 -11 70 -11 57 0 74 4
90 20 11 11 27 20 35 20 8 0 15 6 15 13 0 7 9 20 20 30 17 14 20 29 20 101 0
60 -4 87 -13 93 -8 4 -16 16 -20 26 -3 9 -13 17 -22 17 -8 0 -15 6 -15 14 0
22 -121 35 -185 19z"/>
<path d="M12980 15256 c0 -15 30 -26 71 -26 15 0 29 -7 33 -15 3 -8 11 -15 19
-15 15 0 87 -73 87 -88 0 -5 7 -12 15 -16 22 -8 23 -1234 1 -1274 -8 -15 -17
-39 -21 -54 -3 -16 -10 -28 -15 -28 -6 0 -19 -9 -30 -20 -12 -12 -33 -20 -53
-20 -18 0 -37 -4 -43 -10 -5 -5 -21 -11 -34 -13 -17 -3 -25 -10 -25 -23 0 -18
11 -19 265 -17 146 1 273 3 283 3 35 0 17 28 -23 35 -22 4 -42 10 -45 15 -3 4
-20 11 -39 14 -22 4 -41 17 -52 34 -10 15 -24 33 -31 40 -7 7 -13 25 -13 40 0
15 -7 40 -15 56 -13 24 -15 106 -15 547 0 337 4 520 10 524 6 3 13 -1 16 -9 3
-8 14 -18 25 -21 10 -4 19 -13 19 -21 0 -8 7 -14 15 -14 8 0 15 -5 15 -11 0
-11 32 -55 65 -90 8 -9 15 -21 15 -27 0 -7 7 -12 15 -12 8 0 15 -9 15 -20 0
-11 6 -20 14 -20 7 0 16 -9 19 -20 3 -11 12 -20 21 -20 9 0 16 -8 16 -20 0
-11 9 -25 20 -32 11 -7 20 -21 20 -30 0 -10 5 -18 11 -18 14 0 59 -47 59 -61
0 -5 4 -9 9 -9 4 0 25 -25 45 -55 20 -30 41 -55 46 -55 6 0 10 -6 10 -14 0 -8
7 -16 15 -20 8 -3 15 -12 15 -21 0 -8 7 -15 15 -15 8 0 15 -6 15 -14 0 -8 8
-21 19 -28 10 -7 21 -23 25 -35 4 -13 14 -23 22 -23 8 0 14 -9 14 -20 0 -11 6
-20 14 -20 8 0 18 -9 21 -20 3 -11 13 -20 21 -20 8 0 14 -7 14 -15 0 -9 7 -18
15 -21 8 -4 15 -12 15 -18 0 -7 9 -22 20 -34 11 -12 20 -24 20 -28 0 -4 16
-21 35 -40 19 -18 35 -35 35 -38 0 -3 9 -16 20 -28 43 -49 50 -58 50 -68 0 -5
9 -14 20 -20 11 -6 20 -17 20 -25 0 -8 7 -15 15 -15 8 0 15 -7 15 -15 0 -8 9
-19 20 -25 11 -6 20 -15 20 -20 0 -6 8 -19 18 -30 43 -50 49 -58 55 -74 5 -12
15 -16 34 -14 l28 3 2 755 c3 621 5 757 17 765 7 6 16 20 20 32 4 11 22 28 41
38 19 9 35 20 35 25 0 6 12 10 28 10 42 0 72 11 72 26 0 12 -46 14 -263 14
-145 0 -267 -3 -270 -7 -15 -14 18 -33 60 -33 30 0 45 -5 49 -15 4 -8 14 -15
24 -15 10 0 28 -12 39 -27 12 -16 26 -35 33 -43 19 -22 19 -821 0 -828 -7 -2
-16 5 -19 17 -3 12 -11 21 -18 21 -8 0 -17 9 -20 20 -3 11 -13 20 -21 20 -8 0
-14 9 -14 20 0 11 -7 20 -15 20 -8 0 -17 11 -21 25 -3 14 -15 30 -25 36 -11 5
-19 16 -19 23 0 8 -7 16 -15 20 -8 3 -15 12 -15 21 0 8 -7 15 -15 15 -8 0 -15
7 -15 15 0 9 -6 18 -14 21 -8 3 -19 18 -26 34 -7 16 -18 31 -26 34 -8 3 -14
12 -14 21 0 8 -7 15 -15 15 -8 0 -15 9 -15 20 0 11 -7 20 -15 20 -8 0 -15 7
-15 15 0 8 -8 19 -19 24 -10 6 -22 22 -25 36 -4 14 -13 25 -21 25 -8 0 -15 9
-15 20 0 11 -6 20 -14 20 -8 0 -18 9 -21 20 -3 11 -13 20 -21 20 -8 0 -14 4
-14 9 0 14 -52 91 -62 91 -4 0 -8 7 -8 15 0 9 -7 18 -15 21 -8 3 -17 14 -20
25 -4 10 -13 19 -21 19 -8 0 -14 7 -14 15 0 9 -7 18 -15 21 -8 4 -15 12 -15
20 0 8 -9 22 -20 31 -11 10 -20 23 -20 30 0 6 -9 15 -20 18 -11 3 -20 13 -20
21 0 12 -46 14 -300 14 -249 0 -300 -2 -300 -14z"/>
<path d="M19471 15261 c-11 -7 -10 -11 7 -20 11 -6 30 -11 42 -11 11 0 23 -7
26 -15 4 -8 12 -15 19 -15 7 0 16 -7 19 -16 3 -9 6 -337 6 -730 0 -701 0 -714
-20 -734 -11 -11 -24 -20 -29 -20 -21 0 -82 -43 -73 -52 13 -13 600 -14 613
-1 7 7 -4 17 -33 32 -25 11 -50 21 -56 21 -7 0 -12 9 -12 20 0 11 -7 20 -15
20 -9 0 -15 10 -16 25 -1 14 -3 30 -4 35 -1 6 -3 339 -4 740 l-1 730 -227 0
c-126 0 -234 -4 -242 -9z"/>
<path d="M24375 15261 c-7 -12 26 -31 55 -31 11 0 23 -7 26 -15 4 -8 12 -15
20 -15 7 0 16 -10 19 -22 3 -13 4 -327 3 -698 l-3 -675 -31 3 c-21 2 -33 -2
-37 -13 -4 -9 -18 -15 -36 -15 -27 0 -30 4 -40 50 -6 29 -11 163 -11 312 0
144 -5 302 -11 352 -10 93 -42 176 -66 176 -7 0 -13 7 -13 15 0 8 -6 15 -14
15 -7 0 -16 9 -19 20 -3 11 -14 20 -25 20 -11 0 -25 6 -31 14 -7 8 -28 17 -49
21 -20 4 -43 11 -50 17 -22 19 -186 22 -239 5 -26 -8 -69 -18 -95 -22 -26 -4
-49 -13 -52 -21 -3 -8 -18 -14 -33 -14 -16 0 -36 -9 -46 -20 -9 -11 -26 -20
-37 -20 -12 0 -20 -7 -20 -16 0 -9 -9 -18 -20 -21 -11 -3 -20 -12 -20 -19 0
-8 -6 -14 -14 -14 -8 0 -17 -14 -21 -31 -4 -17 -13 -33 -21 -36 -10 -4 -14
-24 -14 -71 0 -55 4 -72 26 -104 15 -21 38 -41 52 -45 14 -3 37 -12 51 -19 14
-8 32 -14 39 -14 22 0 122 49 122 60 0 5 7 10 15 10 21 0 22 148 1 156 -8 3
-19 19 -25 35 -5 16 -15 29 -20 29 -25 0 -9 46 23 73 32 25 42 27 125 27 74 0
91 -3 91 -15 0 -8 7 -15 15 -15 9 0 19 -8 22 -17 4 -10 12 -22 20 -26 10 -6
13 -41 13 -142 l0 -133 -27 -11 c-16 -6 -35 -15 -43 -20 -8 -5 -43 -22 -77
-37 -35 -16 -63 -32 -63 -36 0 -4 -8 -8 -19 -8 -10 0 -24 -7 -31 -15 -7 -8
-18 -15 -25 -15 -6 0 -22 -9 -35 -20 -13 -11 -32 -20 -42 -20 -10 0 -21 -7
-24 -15 -4 -8 -12 -15 -20 -15 -7 0 -18 -8 -23 -19 -6 -10 -22 -22 -36 -25
-15 -4 -27 -16 -31 -31 -3 -14 -15 -30 -25 -36 -11 -5 -19 -16 -19 -24 0 -8
-7 -15 -15 -15 -10 0 -15 -10 -15 -33 0 -18 -7 -42 -15 -53 -16 -21 -21 -124
-6 -124 5 0 12 -14 16 -30 7 -30 44 -80 60 -80 4 0 14 -8 21 -17 11 -15 29
-18 127 -18 95 0 118 3 134 18 11 9 26 17 35 17 8 0 27 9 41 20 14 11 32 20
41 20 9 0 16 7 16 15 0 8 6 15 13 15 7 0 20 9 30 20 17 20 57 28 57 11 0 -5 6
-16 13 -23 8 -7 18 -26 23 -42 6 -18 26 -37 54 -53 42 -23 51 -24 155 -18 61
3 117 6 125 6 8 1 242 0 520 -1 635 -1 600 -2 600 10 0 5 -21 20 -47 32 -27
12 -58 32 -70 45 l-23 24 0 455 c0 356 3 454 13 455 6 0 35 0 62 -1 85 -2 83
8 84 -378 0 -354 11 -479 43 -521 10 -13 18 -30 18 -37 0 -8 7 -14 15 -14 8 0
15 -7 15 -15 0 -8 12 -17 28 -21 15 -4 33 -14 40 -23 11 -13 34 -16 138 -16
109 0 127 2 135 18 6 9 19 17 29 17 11 0 20 6 20 14 0 7 9 16 20 19 11 3 20
12 20 21 0 9 7 16 15 16 8 0 15 8 15 19 0 10 9 21 21 24 17 5 20 12 17 44 -3
42 -31 55 -36 17 -2 -12 -12 -24 -23 -27 -10 -3 -19 -12 -19 -20 0 -9 -14 -16
-42 -20 -54 -7 -98 2 -98 20 0 7 -7 16 -15 19 -13 5 -15 59 -15 403 0 218 3
406 6 419 6 21 11 22 113 22 110 0 131 -7 131 -41 0 -9 6 -19 14 -22 8 -3 17
-20 21 -37 4 -17 13 -34 21 -37 8 -3 14 -18 14 -34 0 -17 6 -32 15 -35 8 -4
15 -14 15 -23 0 -9 9 -34 20 -56 11 -22 20 -47 20 -56 0 -10 6 -24 14 -31 7
-8 17 -28 20 -45 4 -18 14 -37 22 -44 8 -6 14 -21 14 -32 0 -11 6 -28 13 -36
8 -9 19 -35 26 -58 6 -24 16 -43 21 -43 6 0 10 -13 10 -30 0 -19 7 -34 20 -42
13 -9 20 -24 20 -44 0 -19 6 -34 14 -37 8 -3 18 -22 21 -41 4 -19 13 -40 21
-47 8 -6 14 -22 14 -35 0 -12 6 -29 14 -36 7 -8 17 -28 20 -45 4 -18 14 -37
22 -44 18 -15 18 -60 -1 -85 -8 -10 -15 -26 -15 -34 0 -8 -9 -33 -20 -55 -11
-22 -19 -45 -20 -52 0 -18 -50 -113 -59 -113 -5 0 -11 -9 -14 -19 -3 -13 -17
-22 -41 -26 -57 -11 -66 -3 -66 59 0 35 -5 60 -15 70 -8 8 -15 22 -15 30 0 9
-7 16 -15 16 -8 0 -19 9 -25 20 -17 32 -140 27 -140 -6 0 -8 -9 -14 -20 -14
-13 0 -20 -7 -20 -19 0 -10 -7 -21 -15 -25 -11 -4 -15 -23 -15 -81 0 -44 4
-75 10 -75 6 0 15 -11 20 -25 5 -14 16 -25 25 -25 8 0 15 -7 15 -15 0 -8 7
-15 15 -15 8 0 24 -9 35 -20 16 -16 33 -20 93 -20 60 0 78 4 97 20 13 11 33
20 46 20 14 0 25 8 29 20 3 11 10 20 15 20 18 0 60 48 60 69 0 12 7 24 15 27
8 3 17 21 21 39 3 19 12 36 20 39 8 3 14 19 14 35 0 16 6 31 14 34 8 3 17 24
21 46 4 22 13 45 21 52 8 6 14 25 14 41 0 16 6 31 14 34 8 3 17 26 21 50 3 25
13 48 21 51 8 3 14 19 14 39 0 21 8 42 20 54 12 12 20 33 20 54 0 21 6 36 15
40 8 3 18 23 21 45 4 23 13 46 20 52 8 6 14 26 14 44 0 19 6 35 14 38 8 3 17
24 21 47 4 22 13 47 21 54 8 8 14 26 14 41 0 15 6 33 14 41 8 7 17 31 21 53 3
22 13 42 21 45 8 3 14 19 14 39 0 19 6 40 14 46 8 7 17 30 21 51 4 21 13 41
21 44 8 3 14 18 14 33 0 16 9 36 20 46 11 9 20 25 20 34 0 20 41 63 59 63 16
0 51 38 51 55 0 13 -27 15 -180 15 -135 0 -180 -3 -180 -12 0 -19 51 -58 76
-58 19 0 24 -7 30 -36 10 -52 -3 -161 -21 -187 -8 -12 -15 -36 -15 -55 0 -19
-6 -35 -15 -38 -8 -3 -17 -25 -21 -50 -3 -24 -12 -49 -20 -55 -8 -6 -14 -24
-14 -39 0 -15 -6 -33 -14 -39 -8 -6 -17 -32 -21 -56 -4 -29 -11 -45 -21 -45
-8 0 -14 -9 -14 -20 0 -13 -7 -20 -20 -20 -16 0 -20 7 -20 30 0 17 -6 33 -14
36 -8 3 -17 20 -20 39 -4 18 -13 38 -21 45 -8 7 -15 23 -15 35 0 12 -6 28 -14
34 -8 6 -19 32 -25 56 -6 25 -16 45 -21 45 -6 0 -10 13 -10 29 0 16 -6 34 -14
40 -8 7 -18 27 -22 44 -3 18 -11 35 -17 39 -23 14 -29 168 -6 168 16 0 78 45
75 55 -2 6 -135 12 -362 15 l-359 5 -5 204 c-4 151 -8 205 -17 209 -7 2 -13
-1 -13 -7 0 -6 -7 -11 -15 -11 -9 0 -18 -8 -22 -17 -3 -10 -14 -26 -25 -36
-10 -10 -18 -27 -18 -37 0 -11 -6 -20 -14 -20 -8 0 -18 -9 -21 -20 -3 -11 -10
-20 -16 -20 -5 0 -15 -15 -23 -32 -7 -18 -25 -46 -40 -61 -14 -15 -26 -32 -26
-38 0 -5 -5 -9 -10 -9 -6 0 -32 -22 -58 -48 -27 -27 -56 -51 -65 -55 -9 -3
-17 -11 -17 -16 0 -5 -13 -14 -30 -20 -16 -5 -30 -17 -30 -25 0 -9 -9 -16 -20
-16 -16 0 -20 7 -20 35 l0 36 -245 -3 c-197 -2 -246 0 -250 10 -3 8 -5 121 -5
253 l0 239 -234 0 c-138 0 -237 -4 -241 -9z m530 -541 c10 -11 26 -20 35 -20
9 0 25 -9 36 -21 18 -20 19 -43 19 -473 0 -416 -1 -454 -18 -479 -13 -21 -25
-27 -52 -27 -19 0 -35 4 -35 9 0 5 -8 17 -17 27 -17 16 -18 55 -21 468 -2 248
-1 470 3 494 7 46 22 53 50 22z m-907 -644 l2 -178 -25 -24 c-14 -13 -34 -24
-45 -24 -10 0 -25 -7 -34 -15 -16 -16 -76 -21 -76 -6 0 5 -13 14 -30 21 -22 9
-33 22 -40 51 -14 51 -3 159 16 159 8 0 14 9 14 20 0 11 7 20 15 20 9 0 18 7
22 17 9 22 85 93 100 93 7 0 13 7 13 15 0 8 9 15 20 15 11 0 20 5 20 11 0 6 6
9 13 7 9 -4 13 -51 15 -182z m500 -313 c2 -13 -6 -27 -20 -37 -28 -20 -48 -20
-48 -1 0 8 7 15 15 15 8 0 15 8 15 18 0 38 33 41 38 5z m-78 -73 c0 -5 -4 -10
-10 -10 -5 0 -10 5 -10 10 0 6 5 10 10 10 6 0 10 -4 10 -10z"/>
<path d="M16110 15181 c0 -5 -8 -12 -18 -15 -17 -6 -28 -22 -54 -78 -7 -16
-18 -28 -25 -28 -7 0 -13 -9 -13 -20 0 -11 -6 -20 -13 -20 -7 0 -18 -12 -25
-27 -26 -56 -37 -73 -49 -73 -6 0 -15 -9 -18 -20 -3 -11 -13 -20 -21 -20 -8 0
-14 -6 -14 -14 0 -8 -9 -18 -20 -21 -11 -3 -20 -13 -20 -21 0 -8 -7 -14 -15
-14 -9 0 -18 -7 -21 -15 -4 -8 -12 -15 -20 -15 -7 0 -18 -9 -24 -20 -6 -11
-17 -20 -25 -20 -8 0 -20 -9 -27 -20 -7 -11 -19 -20 -26 -20 -7 0 -12 -8 -10
-17 3 -14 15 -19 63 -21 55 -3 62 -5 72 -30 8 -18 14 -142 17 -377 6 -411 10
-467 37 -491 10 -9 19 -25 19 -36 0 -10 7 -18 15 -18 8 0 19 -9 25 -20 6 -11
18 -20 27 -20 9 0 25 -8 36 -17 15 -14 41 -19 118 -21 89 -4 103 -1 154 22 30
15 55 31 55 36 0 6 7 10 15 10 8 0 15 7 15 15 0 8 9 19 20 25 11 6 20 17 20
24 0 8 7 17 16 20 11 4 14 16 12 41 -4 41 -19 49 -33 18 -5 -13 -15 -23 -22
-23 -6 0 -14 -8 -18 -19 -11 -36 -129 -36 -138 0 -3 10 -12 19 -21 19 -14 0
-16 41 -16 403 0 307 3 407 13 419 10 14 36 17 139 20 l128 3 17 -45 c15 -39
18 -102 23 -440 3 -217 7 -396 8 -397 1 -2 9 -3 17 -3 9 0 15 -9 15 -22 0 -34
59 -92 130 -127 49 -25 75 -31 124 -31 33 0 73 6 88 14 15 8 40 17 57 21 17 4
31 10 31 15 0 4 14 13 30 19 17 5 30 14 30 20 0 5 9 13 20 16 11 3 20 13 20
21 0 8 9 14 19 14 10 0 22 8 25 17 12 30 26 -6 26 -64 l0 -53 198 -1 c209 0
772 0 810 1 35 0 26 27 -13 34 -19 4 -35 11 -35 16 0 6 -9 10 -20 10 -11 0
-28 12 -37 27 -16 25 -18 56 -17 328 1 253 3 305 16 326 9 13 19 41 22 61 4
21 13 41 20 45 7 5 15 16 19 26 3 9 13 17 22 17 8 0 15 7 15 15 0 11 12 15 50
15 36 0 52 -4 56 -15 4 -8 11 -15 17 -15 6 0 21 -9 33 -21 17 -16 36 -21 88
-21 56 -1 70 2 91 22 14 13 25 29 25 37 0 7 7 13 15 13 12 0 15 -14 15 -67 0
-56 4 -73 26 -105 15 -21 38 -41 52 -45 14 -3 37 -12 51 -19 14 -8 32 -14 40
-14 22 0 121 49 121 60 0 6 7 10 15 10 12 0 15 15 15 75 0 44 -4 75 -10 75 -6
0 -16 12 -23 28 -6 15 -17 31 -24 35 -17 11 -17 67 0 67 7 0 20 9 30 20 14 17
29 20 106 20 70 0 90 -3 95 -15 3 -8 12 -15 21 -15 8 0 15 -8 15 -19 0 -10 9
-21 20 -24 19 -5 20 -14 20 -141 l0 -136 -25 -6 c-14 -3 -25 -10 -25 -14 0 -5
-10 -12 -22 -15 -40 -11 -138 -59 -138 -67 0 -4 -6 -8 -14 -8 -16 0 -83 -37
-104 -57 -7 -7 -22 -13 -33 -13 -11 0 -22 -7 -25 -15 -4 -8 -12 -15 -20 -15
-7 0 -19 -8 -26 -19 -7 -10 -22 -21 -33 -25 -20 -7 -75 -77 -75 -96 0 -6 -7
-10 -15 -10 -10 0 -15 -10 -15 -33 0 -18 -7 -42 -15 -53 -16 -21 -21 -124 -6
-124 5 0 12 -14 16 -30 7 -30 44 -80 60 -80 4 0 14 -8 21 -17 11 -15 29 -18
127 -18 95 0 118 3 134 18 11 9 25 17 32 17 21 0 91 44 91 58 0 6 7 12 15 12
8 0 24 9 35 20 11 11 29 20 40 20 13 0 20 -7 20 -20 0 -11 6 -20 14 -20 8 0
17 -14 21 -30 5 -22 19 -37 51 -56 42 -25 51 -26 150 -22 87 3 107 7 115 21 6
9 17 17 24 17 8 0 15 7 15 15 0 8 9 15 20 15 13 0 20 7 20 20 0 11 7 20 15 20
8 0 15 9 15 19 0 11 5 23 10 26 6 4 8 11 5 16 -10 14 -42 11 -49 -6 -9 -25
-62 -19 -71 8 -5 12 -12 162 -16 332 -10 401 -16 473 -40 488 -11 7 -19 20
-19 29 0 10 -7 18 -15 18 -8 0 -15 6 -15 14 0 7 -9 16 -20 19 -11 3 -20 12
-20 21 0 10 -9 16 -24 16 -13 0 -26 7 -30 15 -3 8 -12 15 -19 15 -8 0 -43 9
-78 21 -51 16 -83 20 -154 17 -49 -2 -99 -9 -110 -16 -11 -6 -41 -14 -67 -17
-27 -3 -49 -12 -52 -20 -3 -9 -19 -15 -38 -15 -22 0 -37 -7 -46 -20 -7 -11
-21 -20 -31 -20 -10 0 -21 -9 -24 -20 -3 -11 -12 -20 -21 -20 -9 0 -16 -7 -16
-15 0 -8 -6 -15 -14 -15 -7 0 -17 -14 -22 -31 -16 -53 -29 -37 -34 42 -4 53
-11 81 -23 93 -9 10 -17 22 -17 27 0 5 -5 9 -11 9 -6 0 -22 9 -36 20 -30 24
-104 27 -125 6 -8 -7 -29 -17 -46 -21 -18 -3 -32 -10 -32 -15 0 -4 -13 -13
-30 -19 -16 -5 -30 -17 -30 -25 0 -9 -9 -16 -20 -16 -13 0 -20 -7 -20 -20 0
-11 -7 -20 -16 -20 -8 0 -20 -13 -25 -29 -6 -16 -17 -32 -25 -35 -8 -3 -14
-12 -14 -21 0 -24 -29 -18 -35 8 -3 12 -6 58 -7 102 l-3 80 -219 3 c-137 1
-223 -1 -230 -8 -11 -11 39 -60 62 -60 6 0 12 -5 12 -11 0 -7 8 -18 18 -25 16
-11 17 -45 17 -461 l0 -448 -24 -27 c-14 -16 -30 -28 -37 -28 -7 0 -14 -5 -16
-11 -3 -9 -16 -8 -47 2 -38 13 -46 21 -67 69 l-23 55 -1 478 0 477 -230 0
c-198 0 -230 -2 -230 -15 0 -8 5 -15 10 -15 6 0 19 -9 30 -20 11 -11 28 -20
38 -20 13 0 23 -16 37 -57 18 -52 20 -93 23 -383 3 -270 1 -326 -11 -335 -8
-5 -17 -20 -21 -32 -4 -12 -28 -43 -54 -68 l-46 -46 -70 3 c-67 3 -70 4 -79
33 -6 17 -15 33 -21 37 -8 5 -12 145 -14 463 l-3 455 -303 0 c-168 0 -311 3
-320 6 -14 5 -16 33 -16 210 0 175 -2 204 -15 204 -8 0 -15 -4 -15 -9z m2948
-1110 c2 -176 2 -183 -18 -188 -11 -3 -20 -12 -20 -19 0 -9 -11 -14 -29 -14
-16 0 -34 -7 -41 -15 -13 -16 -70 -21 -70 -6 0 5 -13 14 -30 21 -22 9 -33 22
-40 51 -14 51 -3 159 16 159 8 0 14 7 14 15 0 9 28 42 63 75 88 85 123 111
142 106 6 -2 11 -74 13 -185z"/>
<path d="M15066 14795 c-21 -7 -60 -16 -86 -20 -28 -4 -51 -13 -54 -21 -3 -8
-19 -14 -36 -14 -16 0 -30 -5 -30 -10 0 -6 -12 -16 -27 -23 -36 -16 -113 -91
-113 -110 0 -8 -6 -20 -14 -26 -19 -16 -29 -98 -16 -140 10 -36 62 -91 85 -91
7 0 27 -8 43 -17 28 -16 32 -16 91 7 33 14 61 30 61 37 0 7 6 13 14 13 30 0
35 116 6 153 -11 14 -20 32 -20 40 0 8 -7 17 -15 21 -20 7 -20 66 0 66 8 0 19
9 25 20 10 18 21 20 105 20 78 0 95 -3 95 -15 0 -8 7 -15 15 -15 9 0 19 -8 22
-17 4 -10 12 -22 20 -26 10 -6 13 -41 13 -141 l0 -134 -40 -21 c-22 -12 -47
-21 -54 -21 -7 0 -19 -7 -26 -15 -7 -8 -20 -15 -30 -15 -9 0 -29 -9 -43 -20
-14 -11 -32 -20 -41 -20 -9 0 -16 -4 -16 -9 0 -5 -15 -15 -32 -22 -18 -7 -39
-19 -46 -26 -7 -7 -22 -13 -33 -13 -11 0 -22 -7 -25 -15 -4 -8 -13 -15 -21
-15 -8 0 -17 -9 -20 -20 -3 -11 -14 -20 -25 -20 -11 0 -27 -14 -39 -35 -12
-19 -25 -35 -30 -35 -5 0 -9 -7 -9 -15 0 -9 -7 -18 -15 -21 -8 -3 -17 -22 -21
-42 -4 -21 -13 -46 -20 -57 -19 -27 -17 -73 6 -120 11 -22 19 -46 20 -53 0 -7
7 -15 15 -18 8 -4 15 -12 15 -20 0 -8 7 -14 15 -14 7 0 18 -8 24 -17 8 -16 25
-18 123 -18 92 0 118 3 138 18 13 9 32 17 41 17 9 0 26 9 39 20 13 11 29 20
37 20 7 0 13 7 13 15 0 8 6 15 13 15 8 0 22 9 32 20 10 11 29 20 42 20 16 0
23 -6 23 -20 0 -11 4 -20 9 -20 5 0 14 -15 21 -34 6 -19 19 -37 28 -40 9 -4
28 -13 42 -21 38 -23 226 -17 244 8 7 9 18 17 25 17 6 0 14 7 17 15 4 8 12 15
20 15 8 0 14 7 14 15 0 9 7 18 15 21 8 3 21 19 29 34 12 25 12 29 -1 34 -26
10 -43 6 -43 -9 0 -10 -10 -15 -34 -15 -32 0 -34 2 -44 53 -6 28 -11 171 -12
317 -2 332 -11 459 -33 472 -10 5 -17 14 -17 20 0 12 -47 58 -59 58 -5 0 -11
9 -14 20 -3 11 -14 20 -25 20 -11 0 -25 7 -32 15 -7 8 -28 18 -49 21 -20 4
-50 13 -68 21 -42 17 -177 16 -227 -2z m184 -717 c0 -179 -1 -183 -24 -205
-13 -13 -33 -23 -44 -23 -11 0 -27 -7 -36 -15 -8 -8 -26 -15 -39 -15 -14 0
-30 7 -37 15 -7 8 -19 15 -26 15 -7 0 -21 11 -30 25 -23 35 -17 172 9 186 9 6
17 14 17 19 0 14 115 130 128 130 7 0 12 7 12 15 0 8 9 15 20 15 11 0 20 5 20
10 0 6 7 10 15 10 13 0 15 -27 15 -182z"/>
</g>
</svg>
